<?xml version="1.0" standalone="no"?>
<!DOCTYPE svg PUBLIC "-//W3C//DTD SVG 20010904//EN"
 "http://www.w3.org/TR/2001/REC-SVG-20010904/DTD/svg10.dtd">
<svg version="1.0" xmlns="http://www.w3.org/2000/svg"
 width="225.000000pt" height="225.000000pt" viewBox="0 0 225.000000 225.000000"
 preserveAspectRatio="xMidYMid meet">

<g transform="translate(0.000000,225.000000) scale(0.100000,-0.100000)"
fill="#000000" stroke="none">
<path d="M1188 2243 c17 -2 47 -2 65 0 17 2 3 4 -33 4 -36 0 -50 -2 -32 -4z"/>
<path d="M1093 2203 c-21 -21 -35 -35 -29 -30 20 14 54 7 69 -15 15 -22 15
-22 4 10 -9 25 -9 37 1 52 20 32 -2 23 -45 -17z"/>
<path d="M1750 2226 c0 -2 7 -7 16 -10 8 -3 12 -2 9 4 -6 10 -25 14 -25 6z"/>
<path d="M1790 2206 c0 -2 8 -10 18 -17 15 -13 16 -12 3 4 -13 16 -21 21 -21
13z"/>
<path d="M1232 2168 c-18 -18 -15 -33 14 -67 39 -47 124 -62 138 -24 21 55
-110 133 -152 91z"/>
<path d="M1637 2173 c-28 -27 22 -96 83 -113 91 -26 94 62 3 109 -24 12 -76
15 -86 4z"/>
<path d="M1830 2150 c6 -11 13 -20 16 -20 2 0 0 9 -6 20 -6 11 -13 20 -16 20
-2 0 0 -9 6 -20z"/>
<path d="M1030 2130 c-6 -11 -8 -20 -6 -20 3 0 10 9 16 20 6 11 8 20 6 20 -3
0 -10 -9 -16 -20z"/>
<path d="M1153 2123 c2 -5 35 -61 72 -125 36 -65 69 -118 71 -118 3 0 3 3 1 8
-2 4 -35 60 -72 125 -36 64 -69 117 -71 117 -3 0 -3 -3 -1 -7z"/>
<path d="M1860 2100 c6 -11 13 -20 16 -20 2 0 0 9 -6 20 -6 11 -13 20 -16 20
-2 0 0 -9 6 -20z"/>
<path d="M990 2060 c-6 -11 -8 -20 -6 -20 3 0 10 9 16 20 6 11 8 20 6 20 -3 0
-10 -9 -16 -20z"/>
<path d="M1900 2030 c6 -11 13 -20 16 -20 2 0 0 9 -6 20 -6 11 -13 20 -16 20
-2 0 0 -9 6 -20z"/>
<path d="M955 2000 c-9 -16 -13 -30 -11 -30 3 0 12 14 21 30 9 17 13 30 11 30
-3 0 -12 -13 -21 -30z"/>
<path d="M1935 1970 c9 -16 18 -30 21 -30 2 0 -2 14 -11 30 -9 17 -18 30 -21
30 -2 0 2 -13 11 -30z"/>
<path d="M915 1930 c-9 -16 -13 -30 -11 -30 3 0 12 14 21 30 9 17 13 30 11 30
-3 0 -12 -13 -21 -30z"/>
<path d="M1970 1910 c6 -11 13 -20 16 -20 2 0 0 9 -6 20 -6 11 -13 20 -16 20
-2 0 0 -9 6 -20z"/>
<path d="M880 1870 c-6 -11 -8 -20 -6 -20 3 0 10 9 16 20 6 11 8 20 6 20 -3 0
-10 -9 -16 -20z"/>
<path d="M1328 1818 c17 -29 42 -73 56 -98 47 -82 40 -111 -75 -310 -55 -96
-104 -179 -109 -183 -4 -5 -17 -4 -29 2 -12 7 -21 9 -21 7 0 -3 13 -12 29 -20
26 -14 29 -14 34 2 2 9 52 98 110 197 93 160 109 182 145 200 43 21 53 35 26
35 -40 0 -84 43 -134 131 -28 49 -54 89 -56 89 -3 0 8 -24 24 -52z"/>
<path d="M2010 1840 c6 -11 13 -20 16 -20 2 0 0 9 -6 20 -6 11 -13 20 -16 20
-2 0 0 -9 6 -20z"/>
<path d="M1432 1814 c-21 -40 29 -98 95 -110 44 -8 69 12 59 49 -13 55 -132
101 -154 61z"/>
<path d="M1840 1815 c-41 -50 102 -148 148 -101 15 15 15 19 2 44 -33 57 -121
92 -150 57z"/>
<path d="M840 1800 c-6 -11 -8 -20 -6 -20 3 0 10 9 16 20 6 11 8 20 6 20 -3 0
-10 -9 -16 -20z"/>
<path d="M2045 1780 c9 -16 18 -30 21 -30 2 0 -2 14 -11 30 -9 17 -18 30 -21
30 -2 0 2 -13 11 -30z"/>
<path d="M800 1730 c-6 -11 -8 -20 -6 -20 3 0 10 9 16 20 6 11 8 20 6 20 -3 0
-10 -9 -16 -20z"/>
<path d="M2079 1722 c18 -33 13 -62 -11 -72 -17 -6 -18 -9 -6 -9 9 -1 26 -13
38 -28 l22 -28 -7 40 c-10 58 -25 104 -37 111 -6 4 -6 -1 1 -14z"/>
<path d="M1054 1685 c-7 -19 -14 -44 -14 -55 0 -39 28 -90 49 -90 28 0 54 43
54 90 0 83 -61 121 -89 55z"/>
<path d="M771 1654 c0 -11 3 -14 6 -6 3 7 2 16 -1 19 -3 4 -6 -2 -5 -13z"/>
<path d="M771 1604 c0 -11 3 -14 6 -6 3 7 2 16 -1 19 -3 4 -6 -2 -5 -13z"/>
<path d="M1505 1565 c-58 -30 -82 -79 -50 -105 40 -33 149 33 143 87 -2 23 -8
28 -33 31 -16 1 -43 -5 -60 -13z"/>
<path d="M1915 1568 c-66 -36 -89 -101 -41 -114 49 -12 136 46 136 92 0 33
-53 46 -95 22z"/>
<path d="M2075 1530 c-9 -16 -13 -30 -11 -30 3 0 12 14 21 30 9 17 13 30 11
30 -3 0 -12 -13 -21 -30z"/>
<path d="M800 1530 c6 -11 13 -20 16 -20 2 0 0 9 -6 20 -6 11 -13 20 -16 20
-2 0 0 -9 6 -20z"/>
<path d="M2040 1470 c-6 -11 -8 -20 -6 -20 3 0 10 9 16 20 6 11 8 20 6 20 -3
0 -10 -9 -16 -20z"/>
<path d="M840 1460 c6 -11 13 -20 16 -20 2 0 0 9 -6 20 -6 11 -13 20 -16 20
-2 0 0 -9 6 -20z"/>
<path d="M2000 1400 c-6 -11 -8 -20 -6 -20 3 0 10 9 16 20 6 11 8 20 6 20 -3
0 -10 -9 -16 -20z"/>
<path d="M880 1390 c6 -11 13 -20 16 -20 2 0 0 9 -6 20 -6 11 -13 20 -16 20
-2 0 0 -9 6 -20z"/>
<path d="M1592 1380 c-65 -40 -69 -100 -6 -100 68 0 143 70 113 106 -17 20
-69 17 -107 -6z"/>
<path d="M1965 1340 c-9 -16 -13 -30 -11 -30 3 0 12 14 21 30 9 17 13 30 11
30 -3 0 -12 -13 -21 -30z"/>
<path d="M888 1348 c-8 -4 4 -8 30 -8 23 0 42 2 42 4 0 8 -60 12 -72 4z"/>
<path d="M970 1336 c0 -2 7 -7 16 -10 8 -3 12 -2 9 4 -6 10 -25 14 -25 6z"/>
<path d="M794 1304 c-18 -14 -18 -15 4 -4 12 6 22 13 22 15 0 8 -5 6 -26 -11z"/>
<path d="M1030 1306 c0 -3 9 -10 20 -16 11 -6 20 -8 20 -6 0 3 -9 10 -20 16
-11 6 -20 8 -20 6z"/>
<path d="M1930 1280 c-6 -11 -8 -20 -6 -20 3 0 10 9 16 20 6 11 8 20 6 20 -3
0 -10 -9 -16 -20z"/>
<path d="M724 1264 c-18 -14 -18 -15 4 -4 12 6 22 13 22 15 0 8 -5 6 -26 -11z"/>
<path d="M1080 1276 c0 -3 14 -12 30 -21 17 -9 30 -13 30 -11 0 3 -13 12 -30
21 -16 9 -30 13 -30 11z"/>
<path d="M654 1224 c-18 -14 -18 -15 4 -4 12 6 22 13 22 15 0 8 -5 6 -26 -11z"/>
<path d="M1305 1214 c-16 -8 -34 -19 -39 -24 -5 -5 -17 -5 -28 1 -10 5 -18 8
-18 5 0 -2 30 -21 68 -42 37 -20 78 -44 92 -51 25 -14 25 -14 3 2 l-23 17 20
25 c25 32 25 59 1 73 -26 14 -41 13 -76 -6z"/>
<path d="M1711 1212 c-48 -24 -79 -67 -65 -90 27 -42 119 -11 154 51 14 26 14
29 -4 43 -26 18 -44 18 -85 -4z"/>
<path d="M1890 1210 c-6 -11 -8 -20 -6 -20 3 0 10 9 16 20 6 11 8 20 6 20 -3
0 -10 -9 -16 -20z"/>
<path d="M598 1194 c-38 -20 -36 -28 2 -9 17 9 30 18 30 20 0 7 -1 6 -32 -11z"/>
<path d="M1855 1150 c-9 -16 -13 -30 -11 -30 3 0 12 14 21 30 9 17 13 30 11
30 -3 0 -12 -13 -21 -30z"/>
<path d="M528 1154 c-38 -20 -36 -28 2 -9 17 9 30 18 30 20 0 7 -1 6 -32 -11z"/>
<path d="M464 1114 c-18 -14 -18 -15 4 -4 12 6 22 13 22 15 0 8 -5 6 -26 -11z"/>
<path d="M1814 1088 l-19 -23 23 19 c21 18 27 26 19 26 -2 0 -12 -10 -23 -22z"/>
<path d="M385 1068 c-15 -12 -36 -40 -46 -62 -17 -37 -18 -67 -16 -331 l2
-290 2 284 c3 289 6 311 42 311 9 0 126 -65 261 -143 183 -106 250 -151 267
-176 23 -33 23 -38 23 -332 0 -296 0 -298 -22 -313 l-22 -16 24 0 c32 0 98 18
104 29 3 4 -7 6 -23 3 -51 -7 -52 1 -49 321 3 345 -3 323 121 398 43 25 81 50
85 54 7 8 -79 -38 -143 -77 -18 -11 -50 -18 -78 -18 -44 0 -71 13 -285 136
-130 75 -245 143 -254 152 -26 22 -22 37 15 66 17 14 29 26 26 26 -4 0 -19
-10 -34 -22z"/>
<path d="M1438 1065 c17 -14 32 -33 32 -40 0 -7 -15 -25 -32 -40 l-33 -26 32
15 c45 22 72 20 83 -6 5 -14 9 -17 9 -7 1 24 -54 92 -91 112 l-33 19 33 -27z"/>
<path d="M864 1066 c-40 -18 -49 -41 -25 -65 40 -40 150 -30 168 14 16 43 -83
78 -143 51z"/>
<path d="M1770 1060 c-9 -6 -10 -10 -3 -10 6 0 15 5 18 10 8 12 4 12 -15 0z"/>
<path d="M1278 892 c-64 -37 -120 -71 -125 -76 -10 -11 -14 -13 130 69 99 56
129 76 115 75 -2 0 -56 -31 -120 -68z"/>
<path d="M1404 889 c-29 -15 -66 -83 -62 -116 5 -40 31 -52 65 -27 80 58 77
182 -3 143z"/>
<path d="M397 873 c-4 -3 -7 -23 -7 -44 0 -51 50 -112 89 -107 23 3 26 8 29
45 3 34 -2 47 -29 77 -29 33 -65 46 -82 29z"/>
<path d="M1524 580 c0 -107 2 -151 3 -97 2 53 2 141 0 195 -1 53 -3 9 -3 -98z"/>
<path d="M1206 565 c-34 -37 -50 -88 -36 -115 33 -62 130 29 118 111 -5 36
-51 38 -82 4z"/>
<path d="M330 363 c0 -6 9 -21 21 -34 l20 -24 -17 30 c-24 39 -24 40 -24 28z"/>
<path d="M1437 291 c-41 -26 -46 -36 -10 -17 17 9 35 20 38 26 8 13 6 12 -28
-9z"/>
<path d="M390 286 c0 -3 9 -10 20 -16 11 -6 20 -8 20 -6 0 3 -9 10 -20 16 -11
6 -20 8 -20 6z"/>
<path d="M1052 276 c-77 -42 -83 -183 -7 -148 53 24 89 141 49 156 -19 7 -14
8 -42 -8z"/>
<path d="M747 263 c-11 -10 -8 -62 4 -86 33 -64 88 -87 110 -46 14 27 -12 102
-44 124 -22 16 -59 20 -70 8z"/>
<path d="M440 256 c0 -3 9 -10 20 -16 11 -6 20 -8 20 -6 0 3 -9 10 -20 16 -11
6 -20 8 -20 6z"/>
<path d="M1364 244 c-18 -14 -18 -15 4 -4 12 6 22 13 22 15 0 8 -5 6 -26 -11z"/>
<path d="M510 216 c0 -3 9 -10 20 -16 11 -6 20 -8 20 -6 0 3 -9 10 -20 16 -11
6 -20 8 -20 6z"/>
<path d="M1294 204 c-18 -14 -18 -15 4 -4 12 6 22 13 22 15 0 8 -5 6 -26 -11z"/>
<path d="M560 186 c0 -3 14 -12 30 -21 17 -9 30 -13 30 -11 0 3 -13 12 -30 21
-16 9 -30 13 -30 11z"/>
<path d="M1238 174 c-38 -20 -36 -28 2 -9 17 9 30 18 30 20 0 7 -1 6 -32 -11z"/>
<path d="M630 146 c0 -3 9 -10 20 -16 11 -6 20 -8 20 -6 0 3 -9 10 -20 16 -11
6 -20 8 -20 6z"/>
<path d="M1174 134 c-18 -14 -18 -15 4 -4 12 6 22 13 22 15 0 8 -5 6 -26 -11z"/>
<path d="M700 106 c0 -3 9 -10 20 -16 11 -6 20 -8 20 -6 0 3 -9 10 -20 16 -11
6 -20 8 -20 6z"/>
<path d="M1104 94 c-18 -14 -18 -15 4 -4 12 6 22 13 22 15 0 8 -5 6 -26 -11z"/>
<path d="M750 76 c0 -3 14 -12 30 -21 17 -9 30 -13 30 -11 0 3 -13 12 -30 21
-16 9 -30 13 -30 11z"/>
<path d="M1034 54 c-18 -14 -18 -15 4 -4 12 6 22 13 22 15 0 8 -5 6 -26 -11z"/>
<path d="M834 26 c11 -9 24 -16 30 -16 12 0 7 5 -24 19 -24 11 -24 11 -6 -3z"/>
</g>
</svg>
